<?xml version="1.0" encoding="utf-8"?><!-- Uploaded to: SVG Repo, www.svgrepo.com, Generator: SVG Repo Mixer Tools -->
<svg width="800px" height="800px" viewBox="0 0 24 24" fill="none" xmlns="http://www.w3.org/2000/svg">
<path d="M3.35288 8.95043C4.00437 6.17301 6.17301 4.00437 8.95043 3.35288C10.9563 2.88237 13.0437 2.88237 15.0496 3.35288C17.827 4.00437 19.9956 6.17301 20.6471 8.95044C21.1176 10.9563 21.1176 13.0437 20.6471 15.0496C19.9956 17.827 17.827 19.9956 15.0496 20.6471C13.0437 21.1176 10.9563 21.1176 8.95044 20.6471C6.17301 19.9956 4.00437 17.827 3.35288 15.0496C2.88237 13.0437 2.88237 10.9563 3.35288 8.95043Z" stroke="#0095FF" stroke-width="1.5"/>
<path d="M3.35288 8.95046C2.88237 10.9563 2.88237 13.0438 3.35288 15.0496C4.00437 17.827 6.17301 19.9957 8.95044 20.6472C10.9563 21.1177 13.0437 21.1177 15.0496 20.6472C17.827 19.9957 19.9956 17.827 20.6471 15.0496C21.1176 13.0438 21.1176 10.9563 20.6471 8.95046C19.9956 6.17304 17.827 4.0044 15.0496 3.35291" stroke="#363853" stroke-width="1.5" stroke-linecap="round"/>
<path d="M15 11.4241C13.788 11.8281 12.1719 10.212 12.5759 9M13.0739 8.50204L10.4627 11.1133C9.32749 12.2485 8.52215 13.6708 8.13278 15.2283L8.00661 15.733C7.96729 15.8903 8.10974 16.0327 8.26699 15.9934L8.77168 15.8672C10.3292 15.4779 11.7515 14.6725 12.8867 13.5373L15.498 10.9261C15.8194 10.6046 16 10.1687 16 9.71407C16 8.76741 15.2326 8 14.2859 8C13.8313 8 13.3954 8.18059 13.0739 8.50204Z" stroke="#0095FF" stroke-width="1.5"/>
</svg>